<?xml version="1.0" encoding="iso-8859-1"?>
<!-- Generator: Adobe Illustrator 19.0.0, SVG Export Plug-In . SVG Version: 6.00 Build 0)  -->
<svg version="1.1" id="Capa_1" xmlns="http://www.w3.org/2000/svg" xmlns:xlink="http://www.w3.org/1999/xlink" x="0px" y="0px"
	 viewBox="0 0 490.667 490.667" style="enable-background:new 0 0 490.667 490.667;" xml:space="preserve">
<g>
	<g>
		<path d="M394.667,42.667c-5.888,0-10.667,4.779-10.667,10.667S388.779,64,394.667,64c41.173,0,74.667,33.493,74.667,74.667v256
			c0,41.173-33.493,74.667-74.667,74.667H96c-41.173,0-74.667-33.493-74.667-74.667v-256C21.333,97.493,54.827,64,96,64
			c5.888,0,10.667-4.779,10.667-10.667S101.888,42.667,96,42.667c-52.928,0-96,43.072-96,96v256c0,52.928,43.072,96,96,96h298.667
			c52.928,0,96-43.072,96-96v-256C490.667,85.739,447.595,42.667,394.667,42.667z"/>
	</g>
</g>
<g>
	<g>
		<path d="M309.333,42.667h-128c-5.888,0-10.667,4.779-10.667,10.667S175.445,64,181.333,64h128C315.221,64,320,59.221,320,53.333
			S315.221,42.667,309.333,42.667z"/>
	</g>
</g>
<g>
	<g>
		<path d="M480,149.333H10.667C4.779,149.333,0,154.112,0,160s4.779,10.667,10.667,10.667H480c5.888,0,10.667-4.779,10.667-10.667
			S485.888,149.333,480,149.333z"/>
	</g>
</g>
<g>
	<g>
		<path d="M138.667,0C132.779,0,128,4.779,128,10.667V96c0,5.888,4.779,10.667,10.667,10.667s10.667-4.779,10.667-10.667V10.667
			C149.333,4.779,144.555,0,138.667,0z"/>
	</g>
</g>
<g>
	<g>
		<path d="M352,0c-5.888,0-10.667,4.779-10.667,10.667V96c0,5.888,4.779,10.667,10.667,10.667c5.888,0,10.667-4.779,10.667-10.667
			V10.667C362.667,4.779,357.888,0,352,0z"/>
	</g>
</g>
<g>
	<g>
		<path d="M297.195,218.603c-1.92-3.264-5.419-5.269-9.195-5.269h-85.333c-3.776,0-7.253,1.984-9.173,5.227
			c-0.939,1.579-22.827,38.891-22.827,69.44c0,41.173,33.493,74.667,74.667,74.667S320,329.173,320,288
			C320,257.728,298.133,220.181,297.195,218.603z M245.333,341.333C215.936,341.333,192,317.397,192,288
			c0-18.859,11.477-42.88,16.96-53.333h72.747c6.507,12.352,16.96,35.947,16.96,53.333
			C298.667,317.397,274.731,341.333,245.333,341.333z"/>
	</g>
</g>
<g>
	<g>
		<path d="M245.333,341.333c-5.888,0-10.667,4.779-10.667,10.667v64c0,5.888,4.779,10.667,10.667,10.667S256,421.888,256,416v-64
			C256,346.112,251.221,341.333,245.333,341.333z"/>
	</g>
</g>
<g>
	<g>
		<path d="M288,405.333h-85.333c-5.888,0-10.667,4.779-10.667,10.667c0,5.888,4.779,10.667,10.667,10.667H288
			c5.888,0,10.667-4.779,10.667-10.667C298.667,410.112,293.888,405.333,288,405.333z"/>
	</g>
</g>
<g>
</g>
<g>
</g>
<g>
</g>
<g>
</g>
<g>
</g>
<g>
</g>
<g>
</g>
<g>
</g>
<g>
</g>
<g>
</g>
<g>
</g>
<g>
</g>
<g>
</g>
<g>
</g>
<g>
</g>
</svg>
